<?xml version="1.0" standalone="no"?>
<!DOCTYPE svg PUBLIC "-//W3C//DTD SVG 20010904//EN"
 "http://www.w3.org/TR/2001/REC-SVG-20010904/DTD/svg10.dtd">
<svg version="1.0" xmlns="http://www.w3.org/2000/svg"
 width="500.000000pt" height="500.000000pt" viewBox="0 0 500.000000 500.000000"
 preserveAspectRatio="xMidYMid meet">
<metadata>
Created by potrace 1.14, written by Peter Selinger 2001-2017
</metadata>
<g transform="translate(0.000000,500.000000) scale(0.100000,-0.100000)"
fill="#000000" stroke="none">
<path d="M2305 4994 c-353 -37 -616 -111 -911 -255 -242 -118 -458 -272 -655
-469 -403 -403 -640 -882 -721 -1465 -16 -116 -16 -494 0 -610 68 -488 246
-904 545 -1275 79 -98 272 -290 367 -365 344 -274 741 -451 1175 -522 141 -24
188 -27 395 -27 207 0 254 3 395 27 265 44 464 107 711 228 242 118 458 272
655 469 396 396 627 857 716 1430 24 160 24 520 0 680 -74 480 -247 876 -540
1240 -79 98 -272 290 -367 365 -445 354 -961 540 -1525 550 -110 2 -218 1
-240 -1z m325 -1169 c389 -18 754 -220 931 -516 74 -124 139 -346 139 -475 0
-30 7 -96 16 -146 26 -147 15 -359 -25 -513 -35 -134 -113 -303 -183 -400 -24
-33 -48 -66 -52 -73 -5 -8 48 -70 151 -180 223 -235 223 -236 223 -282 0 -27
-8 -48 -26 -69 -23 -27 -32 -31 -77 -31 l-51 0 -110 118 c-61 64 -147 154
-191 199 l-80 82 -75 -55 c-141 -105 -362 -198 -535 -225 -67 -10 -83 -17
-103 -41 -25 -29 -58 -36 -93 -18 -10 6 -19 17 -19 25 0 9 -18 16 -57 20 -109
12 -198 27 -257 46 -58 18 -60 18 -84 -2 -14 -10 -34 -19 -45 -19 -33 0 -83
37 -118 89 -18 26 -50 58 -70 69 -20 11 -57 37 -83 57 -41 31 -51 34 -85 29
-34 -5 -43 -3 -66 20 -21 21 -26 35 -24 65 3 33 -3 45 -37 84 -53 60 -125 167
-160 240 -24 48 -32 57 -55 57 -34 0 -62 32 -63 72 -1 18 -9 45 -19 60 -20 29
-23 51 -13 89 5 18 3 29 -8 38 -22 18 -20 70 4 109 26 42 25 49 -5 56 -14 4
-32 18 -42 32 -15 24 -15 29 2 77 10 29 32 81 48 117 16 36 39 106 52 155 48
191 122 338 240 485 36 44 65 84 65 88 0 12 -81 88 -109 102 -36 18 -47 0 -32
-50 10 -35 10 -45 -3 -66 -21 -31 -60 -40 -89 -21 -25 16 -67 126 -67 175 0
45 19 100 47 132 80 96 202 77 340 -53 l69 -65 27 48 c59 105 206 206 354 245
127 32 196 35 503 20z m-1784 -2358 c-3 -12 3 -21 19 -27 34 -13 57 -54 57
-98 -1 -35 3 -40 34 -51 52 -19 81 -91 54 -140 -9 -18 -159 -121 -176 -121 -5
0 -19 15 -31 34 l-22 34 70 46 c74 49 89 69 72 95 -19 30 -52 24 -120 -20
l-66 -43 -23 29 c-13 17 -24 35 -24 40 0 6 29 28 65 50 65 39 84 67 71 100
-10 26 -53 17 -118 -25 -34 -22 -66 -39 -70 -38 -5 2 -18 18 -29 35 l-21 32
108 72 109 71 23 -29 c12 -15 21 -36 18 -46z m3451 30 l23 -13 -45 -76 c-49
-85 -53 -98 -28 -98 29 0 63 41 63 75 0 23 7 35 29 48 26 15 30 15 35 1 11
-30 6 -89 -12 -124 -41 -81 -150 -107 -215 -51 -32 28 -34 29 -45 10 -7 -10
-12 -20 -12 -22 0 -2 34 -28 75 -58 41 -29 75 -56 75 -59 0 -3 -13 -20 -28
-37 l-27 -33 -72 55 c-40 30 -76 55 -82 55 -25 0 -14 -30 30 -77 71 -75 66
-129 -19 -205 -47 -42 -90 -55 -125 -36 -29 15 -147 125 -147 137 0 4 12 19
28 34 l27 26 63 -55 c71 -64 109 -70 126 -21 9 25 5 32 -51 90 l-62 62 35 40
c18 22 34 45 34 50 0 6 -14 19 -31 30 -36 24 -69 74 -69 104 0 44 44 101 78
101 16 0 34 -52 22 -64 -19 -19 -10 -43 23 -69 l34 -26 20 21 c16 15 25 18 39
10 18 -9 19 -5 19 50 0 57 2 61 42 99 36 33 49 39 85 39 24 -1 53 -6 65 -13z
m-3150 -411 c18 -20 33 -45 33 -56 0 -12 5 -17 13 -14 7 2 26 -9 42 -26 l29
-31 -92 -91 -91 -92 -31 29 c-17 16 -29 34 -27 39 2 5 -15 19 -37 30 -75 38
-95 126 -44 191 60 76 147 85 205 21z m2693 -218 l74 -101 -34 -29 c-19 -16
-36 -24 -38 -18 -6 17 -22 11 -22 -9 0 -10 -16 -33 -35 -50 -81 -71 -207 -16
-222 97 -9 68 51 142 115 142 14 0 21 4 16 11 -7 11 42 58 61 58 6 0 44 -45
85 -101z m-310 -114 c62 -102 110 -187 108 -188 -1 -1 -19 -12 -38 -24 l-36
-21 -91 152 c-50 84 -101 169 -113 189 l-22 37 34 21 c18 11 36 20 40 20 4 0
57 -84 118 -186z m-2184 150 c32 -15 84 -67 84 -83 0 -4 -11 -13 -25 -19 -21
-10 -28 -8 -55 19 -42 43 -57 28 -25 -26 31 -53 32 -91 3 -122 -41 -44 -130
-20 -178 47 -27 38 -25 54 6 69 29 13 32 12 48 -20 13 -26 42 -46 52 -36 4 4
-2 28 -14 52 -28 58 -28 80 3 110 28 29 54 31 101 9z m399 -48 c19 -8 35 -18
35 -21 0 -4 -16 -43 -35 -86 -19 -44 -35 -84 -35 -88 0 -5 11 -6 25 -3 56 10
125 -44 125 -98 0 -22 -61 -184 -74 -197 -1 -2 -21 4 -43 13 l-40 16 33 81
c29 71 31 85 20 102 -8 12 -25 20 -42 20 -26 0 -33 -7 -65 -75 -20 -41 -41
-76 -47 -78 -12 -4 -72 25 -72 34 0 3 16 42 36 87 20 45 40 93 45 106 9 23 9
23 -14 8 -21 -13 -25 -13 -46 4 -13 11 -34 19 -47 19 -30 0 -64 -33 -64 -62 0
-24 36 -68 57 -68 8 0 13 -13 13 -35 0 -42 -14 -45 -75 -15 -137 66 -96 260
55 260 47 0 73 -11 112 -48 l27 -25 10 24 c22 59 60 139 66 139 3 0 21 -7 40
-14z m1464 -132 l41 -86 28 30 c35 37 88 50 129 30 20 -9 39 -36 70 -98 23
-47 42 -90 42 -96 1 -10 -68 -48 -75 -41 -2 2 -20 37 -41 78 -39 77 -66 95
-99 69 -21 -19 -17 -54 16 -127 17 -36 30 -67 30 -68 0 -4 -82 -36 -84 -33 -1
2 -22 47 -46 101 -44 95 -60 116 -60 78 0 -12 -9 -20 -29 -24 -38 -8 -61 -32
-61 -64 0 -52 52 -79 102 -52 16 9 23 7 36 -13 24 -32 22 -38 -18 -60 -52 -29
-131 -21 -170 17 -89 86 -44 214 85 240 l55 11 -35 73 c-19 40 -35 77 -35 81
0 11 49 39 67 40 7 0 30 -39 52 -86z m-699 -69 c30 -16 60 -61 60 -90 0 -28
-28 -72 -60 -92 l-30 -19 29 -28 30 -28 31 22 31 22 25 -23 c31 -29 30 -38 -3
-65 l-28 -22 31 -34 c66 -72 66 -72 -1 -64 -38 5 -68 15 -81 27 -21 20 -22 20
-59 -2 -45 -27 -136 -29 -183 -5 -36 18 -62 62 -62 102 0 27 58 95 90 106 13
4 13 10 -2 42 -10 20 -18 49 -18 65 0 32 32 79 64 91 34 14 105 11 136 -5z
m-478 -85 c55 -16 98 -70 98 -125 0 -24 -4 -46 -9 -49 -4 -3 -47 5 -95 18
l-86 24 0 -24 c0 -31 33 -48 80 -40 30 5 41 2 59 -18 l22 -24 -22 -16 c-30
-21 -111 -21 -155 0 -74 35 -99 143 -47 205 27 31 73 58 103 59 8 0 32 -5 52
-10z m911 -28 c3 -4 3 -19 0 -35 -5 -25 -9 -27 -49 -27 -62 0 -61 -26 1 -36
58 -8 84 -30 91 -76 5 -30 2 -41 -19 -62 -30 -30 -98 -50 -144 -41 -40 7 -48
21 -34 58 9 24 13 25 41 16 17 -6 37 -8 45 -5 29 11 14 32 -30 44 -139 37 -95
168 57 171 20 1 39 -2 41 -7z"/>
<path d="M2218 3780 c-135 -24 -270 -84 -329 -146 l-34 -36 45 30 c90 60 229
104 375 120 89 10 107 7 103 -17 -3 -12 -26 -18 -106 -28 -125 -14 -195 -34
-290 -80 -80 -39 -90 -52 -21 -28 113 40 182 50 349 50 185 0 261 -13 445 -72
259 -83 449 -198 649 -392 98 -95 100 -82 4 28 -69 79 -179 173 -275 234 -86
55 -100 69 -79 86 28 24 295 -180 399 -306 31 -37 64 -77 73 -88 27 -33 -12
31 -63 103 -169 239 -518 453 -863 528 -86 18 -313 27 -382 14z"/>
<path d="M2875 3727 c324 -136 563 -336 706 -589 35 -62 29 -31 -12 60 -108
241 -341 436 -624 525 -127 39 -159 41 -70 4z"/>
<path d="M2235 3562 c-69 -41 -76 -47 -54 -50 17 -2 48 10 87 35 33 21 68 43
78 50 18 11 17 12 -6 12 -14 -1 -61 -22 -105 -47z"/>
<path d="M2125 3593 c-24 -6 -153 -97 -220 -157 -44 -38 -48 -45 -36 -60 12
-15 17 -13 50 14 79 65 180 140 237 174 l59 36 -35 -1 c-19 -1 -44 -4 -55 -6z"/>
<path d="M2415 3575 c-126 -52 -279 -164 -377 -278 l-46 -54 30 -30 30 -31 58
67 c93 108 211 198 365 278 55 29 96 53 90 53 -5 1 -29 5 -52 9 -34 7 -53 4
-98 -14z"/>
<path d="M1895 3521 c-113 -55 -113 -56 -91 -80 18 -20 19 -19 85 36 76 64 97
83 91 83 -3 0 -41 -18 -85 -39z"/>
<path d="M2574 3526 c-160 -66 -323 -181 -430 -305 l-64 -75 32 -34 33 -34 30
39 c16 21 79 88 140 149 119 119 226 193 347 241 42 16 64 29 56 33 -38 21
-67 18 -144 -14z"/>
<path d="M2758 3494 c-27 -8 -48 -17 -48 -19 0 -3 24 -35 53 -73 28 -38 68
-96 87 -130 31 -55 60 -80 60 -52 0 59 -62 268 -84 282 -14 9 -11 10 -68 -8z"/>
<path d="M2900 3467 c0 -1 11 -47 25 -101 14 -54 25 -109 25 -122 0 -21 5 -24
36 -24 l37 0 -7 55 c-15 128 -25 154 -66 175 -37 19 -50 23 -50 17z"/>
<path d="M2084 3451 c-27 -7 -98 -51 -91 -57 11 -11 88 13 117 37 35 29 30 33
-26 20z"/>
<path d="M2645 3450 c-3 -5 16 -36 43 -69 26 -33 64 -87 83 -120 32 -57 59
-78 59 -48 0 24 -157 247 -174 247 -3 0 -7 -4 -11 -10z"/>
<path d="M2556 3405 c-10 -8 -23 -16 -28 -17 -5 -2 4 -42 20 -88 48 -139 48
-139 73 -133 20 6 21 11 16 62 -6 61 -43 191 -55 191 -4 0 -16 -7 -26 -15z"/>
<path d="M3045 3378 c2 -13 9 -50 15 -82 5 -33 11 -61 13 -63 2 -1 11 3 21 10
16 12 17 20 7 71 -6 34 -18 64 -28 72 -26 19 -34 17 -28 -8z"/>
<path d="M1963 3338 c-48 -10 -52 -17 -23 -43 19 -17 21 -17 41 1 24 21 44 55
32 53 -4 -1 -27 -5 -50 -11z"/>
<path d="M2454 3337 c-12 -32 94 -301 162 -409 29 -46 29 -46 51 -28 l23 18
-55 87 c-48 77 -122 244 -140 318 -7 28 -32 37 -41 14z"/>
<path d="M2664 3327 c3 -9 11 -47 17 -83 9 -51 15 -64 26 -60 8 3 24 6 34 6
19 0 19 2 -6 48 -29 53 -80 117 -71 89z"/>
<path d="M3145 3318 c9 -29 11 -31 24 -23 17 10 13 23 -10 36 -19 10 -20 9
-14 -13z"/>
<path d="M1596 3289 c-15 -17 -25 -33 -23 -35 2 -3 23 4 46 14 40 18 40 19 22
36 -18 16 -20 15 -45 -15z"/>
<path d="M2387 3282 c-15 -17 -15 -24 9 -100 31 -102 72 -195 131 -295 44 -75
46 -77 64 -61 25 23 24 28 -13 82 -42 61 -108 209 -139 310 -13 45 -27 82 -30
82 -3 0 -13 -8 -22 -18z"/>
<path d="M3111 3201 c-388 -278 -758 -638 -1117 -1087 -125 -156 -324 -427
-360 -490 -21 -37 -13 -64 20 -64 19 0 36 17 82 83 451 645 1014 1233 1513
1580 24 16 24 17 6 37 -10 11 -22 20 -26 20 -4 0 -57 -36 -118 -79z"/>
<path d="M1616 3145 c-150 -178 -278 -381 -358 -568 -41 -95 -47 -127 -22
-127 9 0 24 21 37 53 94 228 228 443 394 633 53 61 62 78 53 90 -7 7 -15 14
-19 14 -3 -1 -42 -43 -85 -95z"/>
<path d="M2294 3188 c-23 -24 -58 -64 -79 -91 -36 -45 -37 -48 -21 -66 17 -19
19 -18 94 16 42 20 80 39 84 42 3 3 -4 36 -16 74 l-22 67 -40 -42z"/>
<path d="M1551 3191 c-54 -28 -74 -52 -128 -156 -25 -48 -80 -185 -70 -175 3
3 32 46 65 95 33 50 92 129 131 178 39 48 68 87 64 87 -5 -1 -32 -13 -62 -29z"/>
<path d="M3251 3171 c-86 -63 -87 -61 44 -61 l119 0 -49 50 c-27 28 -52 50
-55 50 -3 0 -29 -18 -59 -39z"/>
<path d="M1681 3088 c-38 -46 -68 -84 -67 -85 2 -2 197 96 205 104 6 4 -50 63
-60 63 -4 0 -39 -37 -78 -82z"/>
<path d="M2850 3163 c-87 -13 -216 -36 -222 -40 -5 -2 1 -21 11 -42 l20 -37
88 18 c48 10 97 18 109 18 16 0 103 56 132 85 6 5 -97 5 -138 -2z"/>
<path d="M3102 3058 c-7 -7 -12 -43 -12 -94 0 -202 -37 -492 -85 -673 -19 -69
-22 -97 -15 -112 6 -10 15 -19 19 -19 13 0 68 237 92 392 22 147 38 518 23
518 -6 0 -15 -5 -22 -12z"/>
<path d="M3170 3028 c0 -62 10 -72 56 -63 22 4 97 10 167 14 l128 6 -31 43
-32 42 -144 0 -144 0 0 -42z"/>
<path d="M1847 3020 c-158 -271 -257 -707 -243 -1075 3 -88 8 -179 12 -203 6
-40 8 -42 24 -27 16 15 17 36 12 253 -5 261 4 378 44 559 33 150 76 276 136
405 52 110 62 167 15 88z"/>
<path d="M1735 3014 c-108 -55 -203 -122 -230 -162 -31 -46 -32 -62 -2 -35 33
31 165 117 224 147 33 16 58 38 68 56 9 17 14 30 13 30 -2 -1 -34 -17 -73 -36z"/>
<path d="M2317 3013 l-78 -38 28 -27 29 -28 66 28 66 28 -16 37 -17 38 -78
-38z"/>
<path d="M2743 3018 c-58 -10 -62 -15 -35 -47 l17 -21 45 39 c25 22 41 40 35
39 -5 0 -34 -5 -62 -10z"/>
<path d="M3009 2983 c-38 -42 -23 -91 19 -64 9 5 12 23 10 50 l-3 43 -26 -29z"/>
<path d="M1879 2933 c-80 -171 -134 -347 -164 -539 -19 -122 -29 -413 -18
-514 l8 -75 21 30 c19 27 20 37 13 100 -19 167 -6 381 36 590 25 126 89 324
130 406 27 52 31 69 16 69 -5 0 -24 -30 -42 -67z"/>
<path d="M1922 2857 c-49 -114 -94 -267 -118 -402 -15 -84 -31 -454 -23 -515
4 -24 6 -22 38 22 l33 47 -1 113 c-4 222 40 441 130 649 l51 121 -33 34 -34
34 -43 -103z"/>
<path d="M3380 2934 c-19 -2 -68 -7 -108 -10 -80 -6 -102 -20 -102 -64 0 -28
2 -29 63 -34 34 -2 139 -11 232 -19 94 -8 172 -13 173 -11 2 1 -14 32 -35 68
l-38 66 -46 0 c-26 0 -59 2 -75 4 -16 2 -45 2 -64 0z"/>
<path d="M2378 2909 l-48 -21 39 -47 c38 -45 40 -46 87 -43 27 2 52 7 56 10 9
10 -56 117 -73 119 -8 2 -35 -7 -61 -18z"/>
<path d="M2931 2916 c-19 -23 -6 -86 18 -86 17 0 18 4 10 43 -14 61 -14 61
-28 43z"/>
<path d="M1618 2849 c-31 -20 -51 -43 -62 -69 -18 -44 -69 -241 -64 -246 11
-10 30 23 67 118 23 58 59 134 81 167 22 34 36 61 32 61 -4 0 -28 -14 -54 -31z"/>
<path d="M3023 2873 c-18 -7 -16 -43 2 -43 9 0 15 9 15 25 0 14 -1 25 -2 24
-2 0 -9 -3 -15 -6z"/>
<path d="M2850 2850 l-25 -20 28 0 c20 0 27 5 27 20 0 24 1 24 -30 0z"/>
<path d="M1672 2787 c-41 -71 -92 -186 -92 -207 0 -7 10 -5 26 3 22 11 34 36
69 143 23 71 42 130 41 131 -2 2 -21 -30 -44 -70z"/>
<path d="M2042 2804 c-24 -48 -18 -49 36 -6 22 17 23 18 4 35 -17 16 -19 15
-40 -29z"/>
<path d="M2100 2759 l-25 -21 34 6 c18 3 38 6 43 6 6 0 5 7 -2 15 -16 19 -20
19 -50 -6z"/>
<path d="M2719 2729 l-54 -50 179 5 c98 3 179 6 181 8 1 2 5 22 9 46 l6 42
-133 0 -133 0 -55 -51z"/>
<path d="M3170 2754 c0 -16 -3 -38 -6 -49 -5 -20 1 -21 189 -33 107 -6 202
-15 211 -18 10 -4 15 -14 14 -23 -4 -18 4 -18 -253 -2 -169 11 -175 10 -175
-35 0 -20 7 -22 90 -28 49 -4 92 -12 96 -17 10 -16 -17 -39 -40 -34 -11 2 -51
7 -87 10 l-67 6 -4 -30 c-4 -30 -4 -30 51 -36 156 -17 296 -37 388 -53 56 -11
105 -17 108 -14 18 18 -7 318 -28 338 -13 12 -168 29 -364 40 l-123 7 0 -29z"/>
<path d="M1443 2707 c-28 -28 -64 -79 -80 -112 -39 -80 -77 -175 -71 -180 2
-3 21 7 41 21 25 17 37 32 37 48 0 53 12 86 32 86 17 0 20 -6 16 -40 -7 -80
17 -32 49 95 18 71 31 130 30 132 -2 1 -26 -21 -54 -50z"/>
<path d="M2435 2753 c-105 -14 -293 -47 -366 -64 l-86 -20 -17 -55 c-10 -31
-16 -57 -14 -59 2 -2 57 12 123 30 66 18 168 41 227 50 l106 18 53 53 c57 58
58 58 -26 47z"/>
<path d="M2679 2633 c-59 -3 -69 -7 -95 -35 l-29 -31 70 7 c39 3 143 6 233 6
l162 0 0 30 0 30 -137 -2 c-76 -1 -168 -3 -204 -5z"/>
<path d="M2215 2574 c-60 -13 -149 -35 -197 -50 -80 -25 -86 -29 -92 -57 -3
-17 -5 -32 -3 -34 2 -2 30 6 62 17 32 11 115 34 184 51 122 30 152 44 172 81
12 22 12 22 -126 -8z"/>
<path d="M1517 2492 c-211 -110 -301 -192 -253 -231 10 -9 47 6 167 66 85 43
156 79 158 80 5 3 30 127 26 131 -1 2 -45 -19 -98 -46z"/>
<path d="M2625 2528 c-114 -8 -122 -10 -149 -38 -17 -16 -27 -32 -24 -35 3 -3
45 -1 94 5 49 6 170 13 269 17 181 6 195 9 195 46 0 15 -12 17 -132 16 -73 -1
-187 -6 -253 -11z"/>
<path d="M2085 2435 c-171 -47 -172 -48 -178 -87 -2 -18 -4 -34 -2 -36 1 -1
17 4 36 12 19 8 77 26 129 41 91 26 131 49 151 88 13 23 7 22 -136 -18z"/>
<path d="M2550 2415 c-63 -8 -123 -14 -132 -14 -10 -1 -32 -14 -50 -31 -31
-28 -32 -29 -10 -30 12 0 64 7 115 15 81 13 240 30 450 50 37 4 67 11 67 16 0
13 -305 9 -440 -6z"/>
<path d="M3115 2383 c-3 -21 -9 -49 -12 -62 l-6 -25 39 24 c21 13 58 38 81 56
40 30 41 32 20 38 -12 3 -43 6 -68 6 -46 0 -47 -1 -54 -37z"/>
<path d="M3279 2367 c-24 -19 -78 -57 -120 -85 -56 -37 -80 -60 -88 -83 -6
-18 -10 -34 -8 -35 9 -10 337 216 337 232 0 2 -17 4 -39 4 -28 0 -50 -9 -82
-33z"/>
<path d="M3376 2319 c-90 -71 -226 -163 -285 -194 l-34 -17 26 -25 25 -25 68
44 c78 50 169 121 232 182 116 110 94 135 -32 35z"/>
<path d="M3558 2288 c-9 -148 -46 -263 -75 -234 -4 4 1 44 10 89 9 45 19 107
23 137 6 52 5 54 -11 39 -11 -11 -24 -54 -35 -115 -31 -174 -76 -304 -105
-304 -20 0 -19 16 6 86 23 68 59 210 59 237 0 16 -4 15 -33 -7 -27 -21 -36
-38 -47 -83 -7 -32 -27 -101 -45 -153 l-33 -94 28 -36 c16 -19 49 -55 73 -79
l45 -43 45 60 c92 125 173 312 203 470 18 93 18 92 -6 92 -16 0 -20 -7 -20
-35 0 -48 -29 -187 -43 -203 -8 -11 -13 -11 -23 0 -10 11 -10 23 2 68 19 72
19 190 0 190 -10 0 -15 -22 -18 -82z"/>
<path d="M2851 2353 l-23 -5 27 -28 27 -29 44 22 c64 31 65 47 1 46 -29 -1
-63 -4 -76 -6z"/>
<path d="M1427 2277 c-76 -39 -143 -80 -148 -90 -13 -22 -2 -57 17 -57 15 0
239 129 267 154 17 16 24 66 10 66 -5 0 -70 -33 -146 -73z"/>
<path d="M1998 2298 c-97 -31 -98 -32 -98 -64 l0 -32 80 31 c59 23 87 40 106
64 14 18 21 33 17 33 -4 -1 -52 -15 -105 -32z"/>
<path d="M2492 2293 c-11 -16 -29 -49 -40 -75 -12 -28 -27 -48 -36 -48 -22 0
-20 33 5 81 21 43 20 55 -5 46 -15 -6 -86 -136 -86 -157 0 -23 176 4 304 46
l48 16 -58 59 c-68 69 -100 76 -132 32z"/>
<path d="M2299 2282 c-9 -4 -44 -39 -78 -78 -67 -79 -66 -84 14 -84 41 0 44 2
56 38 6 20 22 58 36 85 21 42 22 47 6 46 -10 0 -25 -3 -34 -7z"/>
<path d="M2926 2261 c-3 -5 1 -14 9 -21 13 -10 15 -9 15 9 0 21 -14 28 -24 12z"/>
<path d="M1470 2174 c-124 -72 -160 -101 -160 -125 0 -37 29 -32 107 19 43 27
92 56 109 65 25 13 33 24 36 54 3 21 5 39 4 40 -1 1 -44 -23 -96 -53z"/>
<path d="M1954 2175 c-18 -15 -18 -15 5 -13 14 2 26 9 29 16 5 17 -10 15 -34
-3z"/>
<path d="M2617 2138 c-118 -38 -249 -58 -384 -58 l-111 0 -28 -32 -27 -33 64
-3 c86 -4 273 14 384 38 94 21 214 57 228 69 4 4 -3 16 -15 28 l-23 20 -88
-29z"/>
<path d="M3225 2084 c-44 -30 -81 -58 -83 -62 -1 -4 20 -29 47 -56 l48 -48 17
42 c15 37 57 181 53 179 -1 0 -38 -25 -82 -55z"/>
<path d="M1900 2099 l0 -31 19 23 c14 17 16 26 8 31 -21 14 -27 8 -27 -23z"/>
<path d="M1522 2080 l-34 -21 7 -77 c11 -132 25 -195 52 -235 14 -20 27 -36
28 -35 2 2 -1 28 -6 58 -5 30 -10 117 -10 193 -1 75 -2 137 -3 137 -1 0 -16
-9 -34 -20z"/>
<path d="M2679 2049 c-157 -51 -269 -70 -467 -76 l-184 -6 -40 -54 c-23 -29
-38 -57 -34 -61 4 -4 119 -7 254 -7 267 0 340 9 536 63 89 24 100 30 112 57 7
17 9 33 6 37 -4 4 -55 -8 -113 -27 -203 -64 -434 -99 -434 -65 0 16 6 18 189
50 98 17 300 72 315 86 8 7 -22 34 -38 33 -9 -1 -55 -14 -102 -30z"/>
<path d="M1415 2015 c-19 -15 -19 -16 13 -78 32 -62 33 -62 27 -22 -2 22 -5
57 -5 78 0 41 -5 44 -35 22z"/>
<path d="M2891 1936 c-76 -197 -221 -459 -347 -625 -35 -46 -44 -81 -20 -81
23 0 136 160 235 332 62 108 171 339 171 363 0 7 -7 18 -15 25 -12 10 -16 8
-24 -14z"/>
<path d="M2946 1842 c-24 -59 -114 -243 -152 -308 -25 -44 -26 -47 -5 -30 62
55 180 240 205 323 7 22 -8 63 -22 63 -4 0 -16 -21 -26 -48z"/>
<path d="M2773 1870 c-56 -23 -278 -61 -411 -72 -109 -8 -183 -8 -287 0 -77 6
-140 10 -141 9 -1 -1 0 -14 3 -28 6 -30 42 -43 221 -80 110 -23 420 -36 511
-22 48 7 58 13 74 41 11 18 17 35 14 38 -3 3 -42 -2 -87 -10 -114 -22 -150
-21 -150 3 0 16 9 21 48 26 69 8 152 24 194 35 27 8 39 18 47 40 11 33 5 36
-36 20z"/>
<path d="M3026 1794 c-9 -22 -2 -27 24 -19 17 5 19 10 9 21 -15 18 -25 18 -33
-2z"/>
<path d="M1854 1733 l-32 -45 25 -82 c27 -88 82 -209 111 -242 29 -34 66 -54
81 -44 12 7 8 23 -24 92 -41 90 -115 307 -115 338 0 34 -14 29 -46 -17z"/>
<path d="M3042 1727 c-36 -15 -59 -33 -73 -56 -11 -18 -18 -35 -15 -38 8 -8
161 84 161 97 0 21 -17 20 -73 -3z"/>
<path d="M1960 1692 c0 -19 60 -183 95 -259 l37 -81 77 -20 c162 -43 295 -53
317 -24 41 53 116 164 112 167 -2 2 -46 -3 -98 -11 -52 -7 -144 -14 -203 -14
-98 0 -108 2 -105 18 2 13 15 18 53 19 99 5 281 24 337 35 54 10 60 14 88 59
16 27 30 51 30 52 0 2 -35 -1 -77 -6 -149 -17 -449 12 -598 57 -58 18 -65 19
-65 8z"/>
<path d="M3112 1618 c-84 -105 -185 -194 -297 -263 -55 -34 -57 -36 -25 -30
100 19 315 124 427 208 48 36 51 46 24 71 -18 16 -21 14 -81 -49 -35 -36 -69
-65 -77 -65 -28 0 -11 38 38 85 63 62 73 79 55 94 -11 9 -24 -1 -64 -51z"/>
<path d="M1757 1598 c-16 -23 -25 -43 -20 -47 5 -3 30 -21 56 -39 26 -18 47
-30 47 -26 0 12 -43 138 -49 146 -3 3 -19 -12 -34 -34z"/>
<path d="M2978 1595 c-61 -31 -106 -64 -155 -112 -37 -37 -88 -85 -112 -106
-24 -20 -42 -40 -38 -43 15 -15 217 118 310 205 42 39 95 102 85 100 -2 0 -42
-20 -90 -44z"/>
<path d="M3452 1529 c-41 -38 -47 -59 -17 -59 20 0 88 67 83 81 -8 24 -23 18
-66 -22z"/>
<path d="M3512 1473 c-56 -58 -43 -87 19 -42 39 28 52 52 36 71 -10 13 -18 8
-55 -29z"/>
<path d="M3561 1404 c-35 -35 -41 -45 -28 -50 31 -11 108 61 92 86 -9 15 -16
11 -64 -36z"/>
<path d="M4180 1420 c-11 -11 -20 -26 -20 -32 0 -16 17 -44 23 -38 7 10 47 81
47 86 0 12 -32 2 -50 -16z"/>
<path d="M1040 1027 c-36 -18 -41 -78 -8 -101 31 -22 51 -20 76 7 29 31 28 61
-4 86 -31 24 -31 25 -64 8z"/>
<path d="M3677 822 c-38 -42 -6 -107 49 -100 19 2 34 13 44 31 13 24 13 30 0
55 -20 34 -68 42 -93 14z"/>
<path d="M2417 594 c-12 -12 -8 -61 6 -72 22 -18 59 14 55 46 -2 20 -9 28 -28
30 -14 2 -29 0 -33 -4z"/>
<path d="M2366 394 c-31 -31 -11 -64 39 -64 50 0 57 12 29 48 -28 36 -45 40
-68 16z"/>
<path d="M1978 509 c-26 -14 -22 -26 10 -33 15 -4 35 -9 45 -12 25 -8 22 22
-5 40 -26 19 -27 19 -50 5z"/>
</g>
</svg>
