<?xml version="1.0" standalone="no"?>
<!DOCTYPE svg PUBLIC "-//W3C//DTD SVG 20010904//EN"
 "http://www.w3.org/TR/2001/REC-SVG-20010904/DTD/svg10.dtd">
<svg version="1.0" xmlns="http://www.w3.org/2000/svg"
 width="500.000000pt" height="500.000000pt" viewBox="0 0 500.000000 500.000000"
 preserveAspectRatio="xMidYMid meet">
<metadata>
Created by potrace 1.14, written by Peter Selinger 2001-2017
</metadata>
<g transform="translate(0.000000,500.000000) scale(0.100000,-0.100000)"
fill="#000000" stroke="none">
<path d="M2310 4990 c-891 -73 -1669 -604 -2055 -1402 -173 -360 -249 -691
-248 -1093 2 -633 225 -1210 649 -1676 383 -421 891 -694 1460 -785 146 -23
199 -27 384 -27 185 0 238 4 384 27 815 131 1496 633 1857 1371 175 359 252
692 252 1095 0 418 -85 770 -275 1143 -358 702 -1049 1201 -1829 1321 -186 28
-419 39 -579 26z m140 -280 c6 -10 16 -45 23 -76 l13 -56 27 41 c44 67 127 93
127 41 0 -35 -37 -132 -101 -266 -53 -112 -62 -126 -69 -104 -4 14 -21 52 -37
85 -43 84 -63 158 -63 229 0 94 51 161 80 106z m317 -896 c306 -47 609 -224
762 -448 48 -70 107 -201 136 -300 23 -81 34 -165 65 -486 27 -283 -67 -606
-244 -840 l-35 -46 184 -194 c203 -214 218 -239 192 -303 -20 -47 -69 -73
-121 -63 -30 6 -64 37 -222 205 l-187 199 -56 -44 c-140 -108 -371 -208 -546
-235 -59 -9 -85 -18 -101 -34 -46 -49 -99 -52 -123 -7 -8 15 -31 21 -116 31
-58 6 -142 22 -185 35 -77 22 -80 22 -96 4 -38 -41 -117 -8 -170 72 -15 23
-63 64 -115 99 -76 51 -93 59 -122 54 -50 -8 -91 31 -90 83 1 32 -8 50 -61
118 -63 81 -138 202 -150 242 -5 16 -12 20 -26 17 -13 -3 -30 5 -51 26 -25 26
-30 37 -26 60 4 21 1 34 -13 46 -23 21 -32 57 -22 85 6 15 2 34 -10 60 -17 34
-18 41 -5 73 8 19 20 38 26 41 18 11 13 36 -7 36 -27 0 -62 37 -62 65 0 14 18
66 41 117 22 51 53 140 69 198 37 136 49 168 100 270 47 94 95 167 164 250
l46 55 -52 52 c-29 29 -61 53 -71 53 -17 0 -19 -5 -13 -54 6 -47 4 -58 -13
-75 -26 -26 -72 -27 -95 -2 -28 31 -56 118 -56 173 0 96 66 181 151 194 62 10
142 -29 229 -112 l77 -73 17 36 c68 143 243 247 474 283 78 11 416 2 529 -16z
m-1911 -2349 c-3 -8 3 -17 14 -20 33 -10 60 -54 60 -96 0 -35 4 -40 34 -53 66
-28 86 -113 39 -161 -23 -23 -24 -26 -6 -16 12 6 42 11 67 11 36 0 52 -6 80
-30 18 -17 37 -42 40 -56 4 -13 10 -23 15 -20 4 3 23 -10 41 -29 33 -34 33
-35 14 -56 -10 -12 -54 -53 -97 -92 l-78 -70 -30 29 c-16 15 -28 33 -26 38 2
5 -15 19 -37 30 -78 40 -96 130 -41 203 l28 35 -68 -45 -69 -46 -23 34 c-13
19 -23 38 -23 43 0 5 32 30 71 56 61 41 70 50 67 74 -5 42 -39 40 -114 -7 -36
-23 -69 -41 -74 -41 -8 0 -50 61 -50 72 0 3 27 22 60 42 71 44 93 71 79 98
-15 29 -49 21 -121 -27 l-66 -44 -27 40 c-14 23 -25 42 -23 44 2 1 52 35 112
74 l109 71 25 -36 c13 -19 21 -42 18 -49z m3434 40 c17 -9 30 -18 30 -20 0 -2
-20 -39 -45 -81 -25 -41 -45 -78 -45 -80 0 -2 11 -4 24 -4 31 0 50 24 50 65 0
26 6 37 28 50 34 20 45 14 54 -29 7 -40 -21 -110 -57 -143 -54 -48 -137 -48
-189 2 -24 23 -26 24 -37 6 -10 -16 -2 -25 62 -72 41 -30 75 -58 75 -62 0 -5
-12 -24 -26 -42 l-26 -34 -73 55 c-41 29 -79 54 -84 54 -22 0 -10 -27 25 -61
44 -41 64 -84 57 -122 -7 -35 -83 -120 -123 -137 -44 -18 -71 -7 -154 67 l-75
66 27 33 c15 18 31 33 36 33 4 1 35 -24 68 -54 32 -30 68 -55 78 -55 18 0 50
34 50 53 0 5 -28 38 -62 73 l-61 64 24 28 c53 58 53 55 -1 109 -43 44 -50 55
-50 91 0 30 7 47 29 71 37 40 53 39 74 -3 14 -29 14 -35 1 -40 -23 -9 -16 -32
20 -59 33 -26 34 -26 51 -6 11 12 25 17 37 14 15 -5 17 -2 12 22 -7 38 32 112
75 140 40 27 80 29 121 8z m-448 -631 l77 -99 -32 -28 c-17 -15 -38 -25 -45
-22 -7 2 -16 -5 -21 -18 -27 -68 -125 -98 -189 -58 -104 66 -93 210 18 253 25
9 41 17 35 17 -5 1 6 14 25 31 19 16 40 28 45 26 6 -1 45 -47 87 -102z m-313
-110 c61 -102 111 -189 111 -193 0 -4 -17 -17 -39 -29 l-38 -22 -112 186 c-61
102 -111 189 -111 194 0 8 57 47 71 49 3 1 56 -83 118 -185z m-2161 137 c22
-12 72 -68 72 -81 0 -4 -14 -13 -30 -20 -28 -12 -32 -10 -51 14 -11 14 -27 26
-35 26 -18 0 -19 1 15 -64 22 -40 32 -52 38 -42 4 8 25 24 46 36 52 31 114 24
168 -19 l39 -32 30 66 c17 37 30 71 30 75 0 23 34 17 98 -16 1 -1 -15 -42 -36
-91 l-39 -90 37 0 c68 0 129 -65 115 -122 l-7 -26 30 28 c71 68 188 46 235
-44 12 -23 16 -45 11 -69 -3 -19 -7 -36 -8 -37 -2 -2 -125 29 -163 41 -19 6
-23 4 -23 -13 0 -28 35 -44 81 -38 31 4 42 0 60 -19 21 -23 22 -26 6 -41 -9
-9 -38 -18 -71 -21 -44 -3 -62 0 -95 19 -41 23 -80 82 -82 125 0 11 -11 -4
-25 -33 -13 -29 -25 -53 -28 -53 -4 0 -80 31 -84 35 -1 1 11 32 28 69 34 76
37 107 14 126 -31 26 -63 1 -95 -75 -17 -38 -32 -71 -34 -73 -7 -8 -76 20 -81
32 -3 7 11 47 30 89 19 41 37 85 41 97 6 19 4 20 -12 12 -14 -8 -24 -5 -42 9
-44 36 -101 13 -101 -40 0 -34 10 -48 43 -60 24 -9 28 -16 25 -43 -3 -31 -6
-33 -37 -31 -64 3 -131 77 -131 144 l0 39 -20 -20 c-46 -46 -155 -6 -193 71
-15 33 -15 34 6 46 34 19 51 15 69 -17 9 -17 24 -30 33 -30 19 0 19 3 -5 50
-26 51 -25 82 3 107 36 34 68 35 125 4z m1843 -172 c39 -84 43 -89 54 -68 17
31 53 48 103 49 54 0 70 -16 122 -128 l39 -82 -41 -21 c-22 -11 -43 -18 -46
-14 -4 3 -23 38 -42 78 -36 75 -63 93 -96 67 -21 -18 -17 -43 16 -117 17 -36
30 -69 30 -73 0 -8 -78 -45 -84 -39 -3 2 -25 49 -50 104 -37 81 -47 96 -52 78
-4 -16 -14 -23 -30 -23 -33 0 -66 -35 -62 -67 2 -14 15 -35 30 -46 24 -18 28
-18 56 -4 29 14 32 14 57 -13 28 -30 26 -34 -32 -64 -58 -29 -119 -19 -170 27
l-23 20 0 -32 c0 -41 -34 -76 -90 -91 -42 -11 -92 -8 -117 8 -10 6 -10 15 -1
39 12 31 13 31 60 26 39 -5 48 -3 48 10 0 10 -14 18 -42 22 -105 18 -120 128
-22 165 38 15 124 13 124 -2 -1 -46 -12 -58 -57 -58 -58 0 -53 -22 7 -32 23
-4 51 -14 60 -23 16 -14 17 -12 13 32 -4 39 0 55 19 82 30 44 78 73 126 75
l39 1 -39 84 c-21 46 -37 85 -36 85 29 15 75 35 80 35 4 1 26 -40 49 -90z"/>
<path d="M2405 4696 c-24 -36 -30 -104 -15 -168 14 -59 72 -192 88 -202 19
-12 145 279 140 325 l-3 29 -35 -18 c-44 -23 -80 -90 -80 -150 0 -60 -16 -44
-25 24 -8 69 -33 166 -45 178 -4 4 -16 -4 -25 -18z"/>
<path d="M2240 3780 c-102 -14 -222 -56 -289 -101 -87 -58 -83 -62 12 -15 89
45 181 71 313 88 64 8 87 8 98 -1 29 -25 6 -39 -72 -46 -108 -10 -248 -47
-318 -85 -32 -17 -50 -28 -39 -25 135 44 171 49 355 49 210 1 278 -10 471 -74
236 -78 444 -202 628 -375 l65 -60 -39 49 c-61 75 -181 181 -287 254 -94 63
-114 86 -84 98 33 13 255 -154 371 -278 69 -73 74 -77 45 -33 -51 77 -215 233
-319 303 -162 109 -375 198 -566 237 -98 20 -258 27 -345 15z"/>
<path d="M2862 3735 c53 -19 215 -101 273 -137 157 -99 310 -244 397 -377 58
-89 63 -94 49 -59 -98 257 -336 464 -649 562 -86 27 -134 35 -70 11z"/>
<path d="M2133 3590 c-40 -9 -132 -75 -267 -191 -5 -5 -4 -14 3 -23 11 -13 23
-6 83 45 39 32 112 86 161 119 86 57 90 67 20 50z"/>
<path d="M2231 3557 c-43 -25 -67 -43 -57 -45 16 -4 32 3 126 57 45 25 50 31
30 31 -14 0 -58 -19 -99 -43z"/>
<path d="M2440 3583 c-52 -19 -165 -82 -221 -124 -65 -48 -219 -201 -219 -217
0 -5 11 -19 24 -31 l25 -23 84 88 c100 105 216 191 343 255 l93 47 -37 6 c-43
7 -71 7 -92 -1z"/>
<path d="M2580 3526 c-153 -64 -268 -142 -392 -267 -54 -54 -98 -101 -98 -106
1 -4 13 -23 29 -41 l28 -32 30 43 c55 76 163 186 244 246 76 58 264 160 297
162 24 1 -27 17 -58 18 -14 0 -50 -10 -80 -23z"/>
<path d="M1885 3516 c-76 -36 -92 -50 -76 -70 15 -18 26 -11 106 58 47 41 39
44 -30 12z"/>
<path d="M2743 3487 l-31 -12 47 -63 c26 -34 65 -92 87 -128 42 -71 60 -79 55
-24 -3 38 -46 192 -62 221 -11 22 -47 24 -96 6z"/>
<path d="M2900 3467 c0 -1 7 -24 16 -52 9 -27 21 -81 28 -120 12 -69 13 -70
45 -73 l33 -3 -7 56 c-4 31 -13 79 -19 106 -10 45 -15 52 -53 69 -24 10 -43
18 -43 17z"/>
<path d="M2037 3425 c-20 -14 -37 -27 -37 -29 0 -12 86 16 103 33 l21 21 -24
0 c-14 0 -42 -11 -63 -25z"/>
<path d="M2688 3388 c27 -35 64 -89 83 -120 39 -67 72 -82 40 -19 -32 61 -141
201 -158 201 -9 0 2 -22 35 -62z"/>
<path d="M2557 3403 c-26 -13 -28 -18 -22 -49 3 -20 18 -68 34 -107 22 -58 31
-73 50 -75 23 -4 24 -2 17 51 -3 31 -16 87 -29 126 l-22 70 -28 -16z"/>
<path d="M3057 3328 c7 -40 14 -78 15 -85 2 -9 7 -9 20 1 15 11 15 19 5 70 -8
40 -19 63 -33 73 l-21 13 14 -72z"/>
<path d="M1967 3337 l-49 -12 24 -22 24 -22 27 34 c15 19 27 35 25 34 -2 0
-25 -6 -51 -12z"/>
<path d="M2464 3336 c-20 -53 151 -456 189 -443 30 10 30 35 0 78 -44 64 -107
192 -138 284 -32 90 -41 106 -51 81z"/>
<path d="M3150 3310 c0 -13 5 -18 15 -14 8 4 15 10 15 14 0 4 -7 10 -15 14
-10 4 -15 -1 -15 -14z"/>
<path d="M1597 3284 l-28 -33 41 16 c42 17 48 25 28 40 -9 7 -21 1 -41 -23z"/>
<path d="M2674 3303 c3 -10 8 -39 12 -65 6 -45 8 -48 35 -48 16 0 29 5 29 10
0 13 -67 120 -76 120 -3 0 -3 -8 0 -17z"/>
<path d="M2382 3278 c-21 -26 82 -290 165 -421 24 -37 25 -38 44 -21 19 17 19
17 -1 48 -43 65 -105 195 -140 296 -38 106 -49 121 -68 98z"/>
<path d="M3139 3218 c-369 -264 -714 -590 -1063 -1006 -100 -119 -381 -493
-425 -566 -28 -47 -31 -59 -21 -71 7 -9 21 -15 31 -13 9 2 65 70 123 152 425
595 868 1063 1354 1428 72 55 132 101 132 103 0 1 -10 10 -23 18 -22 14 -27
12 -108 -45z"/>
<path d="M1610 3133 c-120 -144 -234 -319 -311 -478 -76 -155 -93 -209 -65
-204 11 3 32 38 56 97 83 197 215 406 379 597 28 33 50 64 48 69 -9 27 -33 9
-107 -81z"/>
<path d="M2278 3168 c-90 -107 -100 -124 -83 -138 12 -10 30 -6 99 25 l83 37
-21 64 c-11 35 -24 64 -27 64 -4 0 -27 -24 -51 -52z"/>
<path d="M1550 3188 c-56 -26 -58 -28 -127 -165 -58 -116 -67 -156 -18 -81 42
65 144 199 178 236 35 37 30 38 -33 10z"/>
<path d="M3254 3168 l-59 -43 53 -3 c28 -2 75 -2 103 0 l50 3 -44 43 -43 42
-60 -42z"/>
<path d="M1695 3099 c-33 -39 -61 -74 -63 -79 -2 -5 34 11 80 34 46 24 90 45
98 48 12 4 9 12 -14 37 -17 17 -32 31 -35 31 -3 0 -33 -32 -66 -71z"/>
<path d="M2880 3164 c-111 -16 -230 -38 -240 -44 -9 -6 -8 -15 4 -39 9 -17 20
-31 24 -31 4 0 54 9 112 20 105 21 119 27 175 74 l30 25 -40 -1 c-22 0 -51 -2
-65 -4z"/>
<path d="M3193 3064 c-8 -3 -13 -25 -13 -56 l0 -50 33 8 c17 4 94 10 170 13
l139 6 -35 39 -34 40 -124 3 c-68 1 -130 0 -136 -3z"/>
<path d="M3097 3054 c-4 -4 -7 -57 -7 -118 0 -202 -31 -444 -84 -653 -20 -79
-22 -94 -10 -104 8 -7 16 -10 18 -8 9 9 57 222 76 332 37 219 51 545 24 554
-5 2 -13 0 -17 -3z"/>
<path d="M1735 3012 c-117 -62 -204 -124 -231 -165 -28 -43 -24 -42 51 14 28
20 90 60 140 88 51 29 95 62 103 76 7 14 11 25 10 25 -2 0 -34 -17 -73 -38z"/>
<path d="M1807 2933 c-153 -324 -229 -735 -198 -1081 6 -75 14 -138 17 -141 2
-2 11 4 19 15 12 15 13 35 7 99 -12 136 -6 421 12 545 31 209 85 394 167 569
54 114 53 111 41 111 -5 0 -34 -53 -65 -117z"/>
<path d="M2312 3010 l-64 -30 24 -28 23 -28 60 24 c33 13 62 26 64 28 7 7 -22
64 -33 64 -6 -1 -40 -14 -74 -30z"/>
<path d="M2753 3016 c-28 -6 -54 -13 -57 -16 -2 -3 3 -15 12 -27 l17 -22 44
40 c24 21 42 38 40 38 -2 -1 -27 -6 -56 -13z"/>
<path d="M1871 2911 c-128 -277 -192 -628 -175 -966 7 -131 8 -138 23 -116 13
20 15 65 16 270 1 267 15 375 70 566 21 71 86 244 121 323 4 6 2 12 -3 12 -6
0 -29 -40 -52 -89z"/>
<path d="M3012 2984 c-30 -21 -28 -71 3 -66 27 5 27 5 23 46 -3 36 -3 36 -26
20z"/>
<path d="M1923 2853 c-96 -233 -143 -479 -143 -755 0 -170 3 -181 41 -131 28
38 28 40 29 178 0 254 42 441 153 686 l26 56 -33 32 -33 32 -40 -98z"/>
<path d="M2382 2908 l-53 -21 43 -44 c42 -43 58 -48 115 -37 l30 6 -35 59
c-19 32 -38 59 -41 58 -3 0 -30 -10 -59 -21z"/>
<path d="M3285 2925 c-5 -2 -31 -6 -57 -10 -48 -6 -48 -6 -48 -45 l0 -38 108
-7 c59 -4 162 -12 229 -19 l121 -11 -15 30 c-9 16 -27 47 -41 68 l-25 37 -131
-1 c-72 0 -135 -2 -141 -4z"/>
<path d="M2925 2910 c-11 -18 6 -80 22 -80 12 0 14 7 9 31 -3 17 -6 38 -6 45
0 16 -16 19 -25 4z"/>
<path d="M1618 2847 c-43 -29 -49 -39 -72 -112 -40 -125 -56 -204 -42 -199 7
3 21 31 31 62 9 31 44 108 75 170 32 61 58 112 57 111 -1 0 -23 -15 -49 -32z"/>
<path d="M3010 2850 c0 -11 7 -20 15 -20 8 0 15 9 15 20 0 11 -7 20 -15 20 -8
0 -15 -9 -15 -20z"/>
<path d="M2850 2845 c-10 -13 -9 -15 9 -15 12 0 21 6 21 15 0 8 -4 15 -9 15
-5 0 -14 -7 -21 -15z"/>
<path d="M2060 2848 c0 -3 -7 -22 -16 -43 l-15 -37 33 23 c18 12 34 23 36 24
1 1 -7 10 -18 20 -11 10 -20 16 -20 13z"/>
<path d="M1656 2751 c-26 -50 -53 -109 -61 -131 -14 -41 -14 -41 8 -34 12 4
23 9 25 13 11 26 79 237 77 239 -1 2 -24 -38 -49 -87z"/>
<path d="M2725 2729 l-50 -51 94 6 c52 3 132 6 178 6 l83 0 0 45 0 45 -128 0
-128 0 -49 -51z"/>
<path d="M3170 2731 l0 -51 78 0 c120 0 316 -20 329 -33 7 -7 9 -17 4 -26 -7
-11 -31 -11 -141 -2 -73 6 -165 11 -205 11 -70 0 -73 -1 -77 -25 -6 -29 -2
-30 102 -39 69 -7 86 -16 77 -41 -6 -13 -19 -15 -89 -9 -46 4 -87 7 -93 8 -5
0 -11 -11 -13 -26 -3 -22 1 -28 15 -28 41 0 286 -32 396 -51 65 -12 121 -18
125 -14 16 16 -4 314 -23 333 -6 7 -222 28 -367 37 l-118 7 0 -51z"/>
<path d="M2095 2753 c-18 -14 -18 -15 -2 -9 10 3 28 6 38 6 11 0 17 5 14 10
-9 14 -27 12 -50 -7z"/>
<path d="M2359 2740 c-134 -20 -360 -67 -370 -78 -5 -5 -39 -99 -39 -107 0 -1
55 13 121 32 67 18 171 41 231 50 l109 18 51 53 c29 28 46 52 38 51 -8 -1 -72
-9 -141 -19z"/>
<path d="M1442 2705 c-39 -36 -58 -64 -90 -137 -22 -51 -44 -106 -48 -122 l-7
-29 31 18 c31 19 42 40 42 86 0 14 6 34 14 44 20 28 44 6 38 -35 -9 -59 15
-29 28 37 7 36 21 93 30 125 10 32 17 58 15 58 -1 0 -25 -20 -53 -45z"/>
<path d="M2719 2633 c-92 -4 -97 -5 -125 -34 l-29 -31 55 7 c31 4 133 8 228 8
l172 2 0 28 0 27 -102 -2 c-57 -1 -146 -4 -199 -5z"/>
<path d="M2230 2575 c-63 -14 -155 -37 -205 -52 -84 -27 -90 -30 -96 -60 l-6
-31 67 23 c37 12 119 35 183 50 100 24 120 32 148 61 18 19 31 34 28 33 -2 0
-56 -11 -119 -24z"/>
<path d="M2720 2529 c-74 -3 -150 -7 -168 -8 -22 -1 -44 -12 -70 -36 l-37 -36
35 6 c88 13 266 25 386 25 131 0 132 0 136 24 4 22 1 24 -46 30 -28 3 -62 5
-76 4 -14 -1 -86 -5 -160 -9z"/>
<path d="M1505 2482 c-97 -51 -200 -118 -227 -148 -16 -19 -22 -36 -19 -61 1
-15 42 -17 57 -4 5 5 68 39 141 75 l131 66 11 50 c13 60 13 70 4 70 -5 0 -48
-22 -98 -48z"/>
<path d="M2130 2444 c-52 -13 -123 -34 -157 -45 -59 -19 -63 -23 -63 -51 0
-24 3 -29 18 -25 9 3 68 22 131 41 62 19 114 36 115 38 0 2 14 18 30 36 17 17
28 32 25 32 -2 -1 -47 -12 -99 -26z"/>
<path d="M2670 2423 c-264 -25 -261 -24 -294 -55 l-31 -29 38 6 c101 16 337
45 465 56 78 7 142 16 142 21 0 7 -243 9 -320 1z"/>
<path d="M3127 2413 c-2 -5 -7 -25 -11 -46 -4 -21 -10 -45 -13 -54 -3 -9 29 8
73 38 73 49 77 54 54 60 -35 10 -98 11 -103 2z"/>
<path d="M3315 2391 c-3 -6 -57 -44 -119 -87 -81 -54 -116 -84 -121 -101 -3
-14 -4 -27 -2 -29 12 -12 307 196 307 216 0 13 -57 13 -65 1z"/>
<path d="M3345 2294 c-60 -47 -147 -108 -192 -135 -46 -28 -83 -54 -83 -58 0
-4 8 -16 19 -25 18 -16 23 -14 112 46 108 72 306 258 274 257 -11 0 -69 -39
-130 -85z"/>
<path d="M2872 2351 l-34 -6 27 -25 26 -25 36 20 c70 38 45 55 -55 36z"/>
<path d="M3565 2293 c-3 -38 -15 -107 -27 -155 -16 -72 -23 -88 -38 -88 -10 0
-21 3 -23 8 -3 4 3 45 13 92 10 47 21 107 24 134 10 80 -20 39 -34 -47 -16
-95 -45 -208 -71 -279 -16 -43 -26 -58 -40 -58 -25 0 -24 22 2 96 22 63 62
234 56 240 -2 2 -17 -11 -34 -29 -21 -22 -35 -53 -46 -98 -9 -36 -29 -102 -45
-146 l-28 -80 72 -77 72 -77 45 63 c93 130 152 262 187 412 31 140 32 146 11
146 -15 0 -19 -11 -24 -72 -10 -133 -38 -201 -69 -170 -7 7 -5 32 6 80 17 77
21 172 7 172 -5 0 -12 -30 -16 -67z"/>
<path d="M1454 2290 c-177 -92 -210 -123 -164 -152 11 -7 36 3 95 39 44 27
103 62 131 77 41 22 53 35 58 59 3 16 4 32 2 34 -2 2 -57 -24 -122 -57z"/>
<path d="M2005 2297 c-98 -32 -100 -34 -103 -65 l-3 -33 38 19 c21 11 54 24
74 31 28 9 117 82 98 81 -2 -1 -49 -15 -104 -33z"/>
<path d="M2518 2313 c-10 -2 -32 -34 -50 -71 -37 -76 -47 -87 -67 -68 -11 12
-9 23 13 71 22 49 23 56 8 53 -18 -3 -99 -154 -88 -165 9 -9 191 23 269 47
l67 21 -52 59 c-50 57 -61 63 -100 53z"/>
<path d="M2313 2283 c-12 -2 -44 -30 -70 -61 -85 -100 -83 -92 -20 -92 55 0
55 0 67 38 7 20 23 56 35 80 13 23 21 41 17 41 -4 -1 -17 -4 -29 -6z"/>
<path d="M2931 2261 c-10 -6 -10 -10 -1 -16 13 -8 24 -1 19 14 -3 6 -10 7 -18
2z"/>
<path d="M1525 2203 c-76 -40 -204 -125 -209 -140 -4 -9 -1 -23 7 -30 11 -11
23 -7 73 25 32 21 83 51 111 68 47 26 53 33 53 62 0 17 -1 32 -2 32 -2 -1 -16
-8 -33 -17z"/>
<path d="M1964 2175 c-10 -8 -14 -15 -8 -15 6 0 17 7 24 15 16 19 9 19 -16 0z"/>
<path d="M2630 2139 c-107 -38 -241 -59 -378 -59 l-130 0 -27 -36 -28 -37 134
7 c168 9 328 36 453 76 95 31 97 32 80 51 -21 23 -34 23 -104 -2z"/>
<path d="M1900 2103 c0 -21 2 -24 15 -13 8 7 15 16 15 20 0 4 -7 10 -15 14
-11 4 -15 -2 -15 -21z"/>
<path d="M3219 2075 l-76 -51 47 -51 48 -52 31 95 c18 53 31 99 29 103 -2 4
-37 -16 -79 -44z"/>
<path d="M1516 2075 c-17 -13 -18 -24 -13 -117 6 -111 27 -197 54 -219 15 -13
16 -10 10 26 -4 22 -10 104 -14 183 -3 78 -9 142 -12 142 -3 0 -15 -7 -25 -15z"/>
<path d="M2685 2049 c-149 -52 -386 -88 -580 -89 l-80 -1 -32 -44 c-18 -24
-33 -48 -33 -53 0 -11 130 -22 261 -22 183 0 395 30 556 80 65 19 72 25 78 52
4 16 5 31 3 33 -1 1 -49 -12 -106 -31 -179 -59 -421 -100 -437 -74 -14 22 19
36 110 49 115 15 362 78 384 97 7 6 -21 34 -33 33 -6 -1 -47 -14 -91 -30z"/>
<path d="M1421 2013 l-23 -19 23 -45 24 -44 3 33 c2 17 2 46 0 63 l-3 31 -24
-19z"/>
<path d="M2880 1902 c-69 -172 -196 -400 -311 -559 -60 -82 -67 -97 -50 -108
34 -20 274 365 375 603 31 72 34 86 23 103 -12 17 -15 14 -37 -39z"/>
<path d="M2740 1859 c-156 -46 -285 -62 -510 -63 -118 -1 -234 2 -257 6 l-41
8 7 -28 c6 -24 17 -30 82 -48 149 -43 265 -58 454 -58 218 -1 249 4 271 45 8
17 14 33 12 35 -3 2 -36 -3 -74 -11 -81 -17 -160 -19 -169 -5 -12 19 17 40 55
40 39 0 117 13 182 30 26 8 43 20 53 40 9 17 12 29 8 29 -5 -1 -37 -10 -73
-20z"/>
<path d="M2941 1823 c-13 -32 -53 -114 -88 -183 -58 -114 -62 -122 -33 -95 80
76 194 291 169 321 -18 22 -24 18 -48 -43z"/>
<path d="M3031 1791 c-12 -22 -5 -27 19 -11 11 7 12 12 3 21 -8 8 -14 6 -22
-10z"/>
<path d="M1855 1730 l-29 -41 23 -77 c48 -163 126 -292 177 -292 13 0 24 4 24
9 0 4 -20 51 -44 102 -25 52 -61 148 -81 214 -20 65 -37 121 -39 122 -2 2 -16
-15 -31 -37z"/>
<path d="M3044 1726 c-38 -16 -57 -30 -73 -59 l-22 -38 48 25 c96 50 125 72
111 82 -9 7 -29 4 -64 -10z"/>
<path d="M1960 1695 c0 -15 79 -223 104 -274 29 -60 36 -66 76 -79 75 -22 171
-40 252 -47 l76 -7 49 66 c27 37 57 79 65 94 l17 28 -87 -13 c-48 -7 -139 -14
-202 -15 -110 -3 -115 -2 -118 18 -3 20 4 21 155 32 87 7 188 17 225 23 65 11
69 14 93 55 14 23 25 45 25 47 0 3 -69 2 -152 0 -169 -6 -309 9 -480 51 -54
13 -98 22 -98 21z"/>
<path d="M3120 1624 c-62 -82 -164 -177 -252 -237 -42 -28 -76 -53 -74 -55 2
-2 39 9 82 23 101 34 231 102 318 166 l69 51 -22 21 -21 22 -56 -63 c-53 -59
-85 -75 -100 -51 -3 6 13 32 38 57 87 93 90 98 75 111 -12 9 -23 0 -57 -45z"/>
<path d="M1761 1597 c-11 -19 -21 -36 -21 -39 0 -5 86 -68 93 -68 6 0 -36 126
-45 135 -3 3 -15 -9 -27 -28z"/>
<path d="M2974 1587 c-62 -32 -108 -68 -195 -151 -102 -96 -109 -106 -69 -86
112 56 245 157 319 243 18 20 31 37 30 36 -2 0 -41 -19 -85 -42z"/>
<path d="M3458 1527 c-38 -41 -46 -57 -28 -57 15 0 80 61 80 75 0 27 -16 21
-52 -18z"/>
<path d="M3512 1469 c-38 -36 -47 -59 -22 -59 15 0 80 61 80 75 0 27 -16 22
-58 -16z"/>
<path d="M3572 1409 c-46 -43 -48 -70 -4 -43 35 20 67 63 56 74 -5 5 -28 -9
-52 -31z"/>
<path d="M1027 1012 c-35 -38 -8 -92 46 -92 27 0 57 32 57 61 0 43 -73 65
-103 31z"/>
<path d="M4188 1428 c-16 -13 -22 -29 -19 -55 2 -22 15 -14 34 18 26 47 20 64
-15 37z"/>
<path d="M3676 825 c-36 -37 -9 -95 44 -95 43 0 67 38 48 77 -16 34 -66 44
-92 18z"/>
<path d="M1971 506 c-9 -11 -3 -16 31 -24 51 -13 61 -7 29 19 -28 23 -44 24
-60 5z"/>
</g>
</svg>
